<svg width="213" height="300" viewBox="0 0 213 300" fill="none" xmlns="http://www.w3.org/2000/svg">
<g clip-path="url(#clip0)">
<path d="M19.3401 275.893L0 58.9651H212.52L193.159 275.859L106.13 299.987L19.3401 275.893Z" fill="#E54C21"/>
<path d="M106.26 281.544L176.584 262.048L193.129 76.7022H106.26V281.544Z" fill="#F16524"/>
<path d="M106.26 157.158H71.0539L68.6225 129.914H106.26V103.308H39.5461L40.183 110.446L46.7221 183.763H106.26V157.158ZM106.26 226.255L106.144 226.286L76.5126 218.285L74.6184 197.066H47.9108L51.6382 238.84L106.137 253.97L106.26 253.936V226.255Z" fill="#EBEBEB"/>
<path d="M19.7725 0.0134277H33.293V13.3716H45.661V0.0134277H59.1821V40.4653H45.6616V26.9196H33.2936V40.4653H19.7737V0.0134277H19.7725V0.0134277ZM76.9619 13.4279H65.0597V0.0134277H102.392V13.4279H90.4842V40.4653H76.9631L76.9619 13.4279V13.4279ZM108.317 0.0134277H122.414L131.087 14.227L139.751 0.0134277H153.854V40.4653H140.389V20.4151L131.087 34.798H130.855L121.546 20.4151V40.4653H108.317V0.0134277H108.317ZM160.583 0.0134277H174.108V27.0942H193.121V40.4653H160.583V0.0134277Z" fill="black"/>
<path d="M106.168 157.158V183.763H138.929L135.841 218.268L106.168 226.277V253.957L160.71 238.84L161.11 234.345L167.362 164.302L168.011 157.158H160.842H106.168ZM106.168 103.308V129.914H170.432L170.966 123.933L172.178 110.446L172.814 103.308H106.168Z" fill="white"/>
</g>
<defs>
<clipPath id="clip0">
<rect width="212.52" height="300" fill="white"/>
</clipPath>
</defs>
</svg>
