<svg width="670" height="276" viewBox="0 0 670 276" fill="none" xmlns="http://www.w3.org/2000/svg">
<rect width="670" height="276" rx="40" fill="#004D87"/>
<rect x="10" y="10" width="650" height="256" rx="35" fill="#15181E"/>
<path d="M119.799 102.438C125.528 102.438 130.346 102.796 134.252 103.512C138.191 104.195 141.43 105.253 143.969 106.686C146.508 108.085 148.461 109.859 149.828 112.008C151.195 114.156 152.188 116.679 152.807 119.576C153.458 122.473 153.832 125.745 153.93 129.391C154.06 133.036 154.125 137.073 154.125 141.5C154.125 145.927 154.06 149.964 153.93 153.609C153.832 157.255 153.458 160.527 152.807 163.424C152.188 166.321 151.195 168.844 149.828 170.992C148.461 173.141 146.508 174.931 143.969 176.363C141.43 177.763 138.191 178.805 134.252 179.488C130.346 180.204 125.528 180.562 119.799 180.562H91.5762C85.847 180.562 81.013 180.204 77.0742 179.488C73.168 178.805 69.9453 177.763 67.4062 176.363C64.8672 174.931 62.8978 173.141 61.498 170.992C60.1309 168.844 59.1217 166.321 58.4707 163.424C57.8522 160.527 57.4941 157.255 57.3965 153.609C57.2988 149.964 57.25 145.927 57.25 141.5C57.25 137.073 57.2988 133.036 57.3965 129.391C57.4941 125.745 57.8522 122.473 58.4707 119.576C59.1217 116.679 60.1309 114.156 61.498 112.008C62.8978 109.859 64.8672 108.085 67.4062 106.686C69.9453 105.253 73.168 104.195 77.0742 103.512C81.013 102.796 85.847 102.438 91.5762 102.438H119.799ZM119.799 172.75C123.933 172.75 127.416 172.636 130.248 172.408C133.113 172.148 135.473 171.643 137.328 170.895C139.184 170.146 140.616 169.072 141.625 167.672C142.634 166.272 143.367 164.417 143.822 162.105C144.278 159.794 144.538 156.962 144.604 153.609C144.701 150.224 144.75 146.188 144.75 141.5C144.75 136.812 144.701 132.792 144.604 129.439C144.538 126.054 144.278 123.206 143.822 120.895C143.367 118.583 142.634 116.728 141.625 115.328C140.616 113.928 139.184 112.854 137.328 112.105C135.505 111.357 133.161 110.868 130.297 110.641C127.465 110.38 123.965 110.25 119.799 110.25H91.5762C87.4095 110.25 83.8939 110.38 81.0293 110.641C78.1973 110.868 75.8535 111.357 73.998 112.105C72.1426 112.854 70.7103 113.928 69.7012 115.328C68.6921 116.728 67.9596 118.583 67.5039 120.895C67.0482 123.206 66.7878 126.054 66.7227 129.439C66.6576 132.792 66.625 136.812 66.625 141.5C66.625 146.188 66.6576 150.224 66.7227 153.609C66.8203 156.962 67.097 159.794 67.5527 162.105C68.0085 164.417 68.7246 166.272 69.7012 167.672C70.7103 169.072 72.1426 170.146 73.998 170.895C75.8535 171.643 78.1973 172.148 81.0293 172.408C83.8939 172.636 87.4095 172.75 91.5762 172.75H119.799ZM219.016 136.812C224.159 136.812 228.57 137.024 232.248 137.447C235.926 137.87 239.019 138.505 241.525 139.352C244.064 140.165 246.083 141.191 247.58 142.428C249.077 143.665 250.233 145.081 251.047 146.676C251.861 148.238 252.382 149.996 252.609 151.949C252.87 153.902 253 156.018 253 158.297C253 160.576 252.788 162.724 252.365 164.742C251.975 166.728 251.258 168.551 250.217 170.211C249.175 171.871 247.759 173.352 245.969 174.654C244.178 175.956 241.9 177.063 239.133 177.975C236.366 178.886 233.029 179.57 229.123 180.025C225.249 180.514 220.708 180.758 215.5 180.758H203C198.312 180.758 194.211 180.579 190.695 180.221C187.18 179.863 184.152 179.326 181.613 178.609C179.074 177.861 176.975 176.933 175.314 175.826C173.654 174.687 172.32 173.368 171.311 171.871C170.334 170.341 169.65 168.616 169.26 166.695C168.869 164.742 168.674 162.594 168.674 160.25H178.049C178.049 163.18 178.472 165.475 179.318 167.135C180.165 168.795 181.564 170.048 183.518 170.895C185.471 171.708 188.026 172.229 191.184 172.457C194.374 172.652 198.312 172.75 203 172.75H215.5C220.969 172.75 225.51 172.49 229.123 171.969C232.736 171.448 235.617 170.618 237.766 169.479C239.914 168.339 241.428 166.858 242.307 165.035C243.186 163.18 243.625 160.934 243.625 158.297C243.625 155.66 243.316 153.463 242.697 151.705C242.111 149.947 240.923 148.548 239.133 147.506C237.375 146.464 234.885 145.732 231.662 145.309C228.439 144.853 224.224 144.625 219.016 144.625H206.125C200.396 144.625 195.48 144.413 191.379 143.99C187.31 143.567 183.892 142.965 181.125 142.184C178.358 141.37 176.145 140.377 174.484 139.205C172.824 138.001 171.555 136.633 170.676 135.104C169.829 133.574 169.276 131.881 169.016 130.025C168.755 128.137 168.625 126.103 168.625 123.922C168.625 121.643 168.82 119.527 169.211 117.574C169.634 115.621 170.399 113.863 171.506 112.301C172.613 110.706 174.126 109.29 176.047 108.053C177.967 106.816 180.425 105.79 183.42 104.977C186.447 104.13 190.077 103.495 194.309 103.072C198.54 102.649 203.521 102.438 209.25 102.438H218.625C223.312 102.438 227.414 102.617 230.93 102.975C234.445 103.3 237.473 103.837 240.012 104.586C242.551 105.302 244.65 106.214 246.311 107.32C248.003 108.395 249.338 109.697 250.314 111.227C251.324 112.724 252.023 114.433 252.414 116.354C252.805 118.274 253 120.406 253 122.75H243.625C243.625 119.82 243.202 117.525 242.355 115.865C241.509 114.205 240.109 112.968 238.156 112.154C236.203 111.308 233.632 110.787 230.441 110.592C227.251 110.364 223.312 110.25 218.625 110.25H209.25C203 110.25 197.857 110.478 193.82 110.934C189.784 111.357 186.594 112.089 184.25 113.131C181.906 114.173 180.279 115.572 179.367 117.33C178.456 119.088 178 121.285 178 123.922C178 125.549 178.114 126.998 178.342 128.268C178.57 129.537 179.025 130.66 179.709 131.637C180.425 132.581 181.418 133.378 182.688 134.029C183.957 134.68 185.633 135.217 187.717 135.641C189.8 136.064 192.339 136.373 195.334 136.568C198.361 136.731 201.958 136.812 206.125 136.812H219.016ZM338.594 104H349.531L380 171.188L409.688 104H420.625L386.25 179H373.75L344.062 113.375L314.375 179H301.875L264.375 104H275.312L308.125 171.188L338.594 104ZM435.125 179V104H510.125V111.812H444.5V136.812H507V144.625H444.5V171.188H510.125V179H435.125ZM524.625 179V104H587.174C591.861 104 595.637 104.391 598.502 105.172C601.367 105.921 603.564 107.044 605.094 108.541C606.656 110.006 607.698 111.845 608.219 114.059C608.74 116.272 609 118.811 609 121.676C609 123.759 608.821 125.598 608.463 127.193C608.105 128.788 607.633 130.172 607.047 131.344C606.461 132.516 605.794 133.508 605.045 134.322C604.296 135.104 603.531 135.755 602.75 136.275C600.927 137.512 598.844 138.212 596.5 138.375C599.43 138.538 602.034 139.254 604.312 140.523C605.289 141.077 606.233 141.777 607.145 142.623C608.089 143.437 608.919 144.462 609.635 145.699C610.383 146.904 610.986 148.336 611.441 149.996C611.897 151.624 612.125 153.512 612.125 155.66C612.125 158.264 611.995 160.657 611.734 162.838C611.507 164.986 611.018 166.923 610.27 168.648C609.521 170.374 608.447 171.887 607.047 173.189C605.647 174.492 603.775 175.582 601.432 176.461C599.12 177.307 596.272 177.942 592.887 178.365C589.534 178.788 585.514 179 580.826 179H524.625ZM577.701 171.188C581.347 171.188 584.505 171.139 587.174 171.041C589.843 170.911 592.105 170.667 593.961 170.309C595.816 169.918 597.314 169.381 598.453 168.697C599.592 167.981 600.471 167.053 601.09 165.914C601.741 164.742 602.18 163.326 602.408 161.666C602.636 160.006 602.75 158.004 602.75 155.66C602.75 153.837 602.636 152.258 602.408 150.924C602.18 149.557 601.741 148.417 601.09 147.506C600.471 146.562 599.592 145.813 598.453 145.26C597.314 144.674 595.816 144.218 593.961 143.893C592.105 143.567 589.843 143.355 587.174 143.258C584.505 143.128 581.347 143.062 577.701 143.062H534V171.188H577.701ZM577.701 135.25C580.891 135.25 583.642 135.185 585.953 135.055C588.264 134.924 590.234 134.68 591.861 134.322C593.489 133.964 594.807 133.476 595.816 132.857C596.826 132.206 597.607 131.376 598.16 130.367C598.746 129.358 599.137 128.154 599.332 126.754C599.527 125.322 599.625 123.629 599.625 121.676C599.625 119.592 599.397 117.9 598.941 116.598C598.486 115.296 597.672 114.303 596.5 113.619C595.328 112.903 593.733 112.431 591.715 112.203C589.729 111.943 587.174 111.812 584.049 111.812H534V135.25H577.701Z" fill="#009BE6"/>
<path d="M338.344 149H349.281L379.75 216.188L409.438 149H420.375L386 224H373.5L343.812 158.375L314.125 224H301.625L264.125 149H275.062L307.875 216.188L338.344 149Z" fill="#004D87"/>
<path d="M338.344 58H349.281L379.75 125.188L409.438 58H420.375L386 133H373.5L343.812 67.375L314.125 133H301.625L264.125 58H275.062L307.875 125.188L338.344 58Z" fill="#004D87"/>
</svg>
